{
  "accessors": [
    {
      "bufferView": 2,
      "componentType": 5126,
      "count": 18,
      "max": [
        -0.394553542137146,
        7.6083855628967285,
        0.0060700704343616962
      ],
      "min": [
        -0.40609949827194214,
        7.2963509559631348,
        -0.0060700709000229836
      ],
      "type": "VEC3"
    },
    {
      "bufferView": 2,
      "byteOffset": 216,
      "componentType": 5126,
      "count": 18,
      "max": [
        1,
        1,
        0.95105654001235962
      ],
      "min": [
        -0.80901634693145752,
        0,
        -0.95105654001235962
      ],
      "type": "VEC3"
    },
    {
      "bufferView": 3,
      "componentType": 5126,
      "count": 18,
      "max": [
        1,
        0.0050177201628684998,
        0.80900633335113525,
        1
      ],
      "min": [
        -0.95104497671127319,
        0,
        -0.99998760223388672,
        1
      ],
      "type": "VEC4"
    },
    {
      "bufferView": 1,
      "componentType": 5126,
      "count": 18,
      "max": [
        0.58017313480377197,
        0.41577136516571045
      ],
      "min": [
        0.4198269248008728,
        0.23873823881149292
      ],
      "type": "VEC2"
    },
    {
      "bufferView": 0,
      "componentType": 5125,
      "count": 45,
      "max": [
        17
      ],
      "min": [
        0
      ],
      "type": "SCALAR"
    },
    {
      "bufferView": 2,
      "byteOffset": 432,
      "componentType": 5126,
      "count": 39,
      "max": [
        0.20656359195709229,
        6.8569269180297852,
        0.20656359195709229
      ],
      "min": [
        -0.20656359195709229,
        6.6279969215393066,
        -0.20656359195709229
      ],
      "type": "VEC3"
    },
    {
      "bufferView": 2,
      "byteOffset": 900,
      "componentType": 5126,
      "count": 39,
      "max": [
        1,
        4.5122036534374554e-18,
        1
      ],
      "min": [
        -1,
        -1,
        -1
      ],
      "type": "VEC3"
    },
    {
      "bufferView": 3,
      "byteOffset": 288,
      "componentType": 5126,
      "count": 39,
      "max": [
        1,
        3.9508545341959689e-06,
        1,
        1
      ],
      "min": [
        -1,
        -8.6759260739199817e-05,
        -1,
        1
      ],
      "type": "VEC4"
    },
    {
      "bufferView": 1,
      "byteOffset": 144,
      "componentType": 5126,
      "count": 39,
      "max": [
        0.99805402755737305,
        0.99201446771621704
      ],
      "min": [
        0.5109715461730957,
        0.88193362951278687
      ],
      "type": "VEC2"
    },
    {
      "bufferView": 0,
      "byteOffset": 180,
      "componentType": 5125,
      "count": 108,
      "max": [
        38
      ],
      "min": [
        0
      ],
      "type": "SCALAR"
    },
    {
      "bufferView": 2,
      "byteOffset": 1368,
      "componentType": 5126,
      "count": 441,
      "max": [
        0.49212512373924255,
        7.3303546905517578,
        0.24645513296127319
      ],
      "min": [
        -0.64329469203948975,
        6.8225593566894531,
        -0.24646280705928802
      ],
      "type": "VEC3"
    },
    {
      "bufferView": 2,
      "byteOffset": 6660,
      "componentType": 5126,
      "count": 441,
      "max": [
        1,
        0.99991202354431152,
        0.99992680549621582
      ],
      "min": [
        -1,
        -0.99991196393966675,
        -0.99992662668228149
      ],
      "type": "VEC3"
    },
    {
      "bufferView": 3,
      "byteOffset": 912,
      "componentType": 5126,
      "count": 441,
      "max": [
        0.90814363956451416,
        0.45283982157707214,
        0.99934083223342896,
        1
      ],
      "min": [
        -0.99973571300506592,
        -0.49754446744918823,
        -0.99977332353591919,
        1
      ],
      "type": "VEC4"
    },
    {
      "bufferView": 1,
      "byteOffset": 456,
      "componentType": 5126,
      "count": 441,
      "max": [
        0.99305206537246704,
        0.778656005859375
      ],
      "min": [
        0.39794349670410156,
        0.0070884525775909424
      ],
      "type": "VEC2"
    },
    {
      "bufferView": 0,
      "byteOffset": 612,
      "componentType": 5125,
      "count": 2304,
      "max": [
        440
      ],
      "min": [
        0
      ],
      "type": "SCALAR"
    },
    {
      "bufferView": 2,
      "byteOffset": 11952,
      "componentType": 5126,
      "count": 63,
      "max": [
        0.26147931814193726,
        6.9251155853271484,
        0.26147934794425964
      ],
      "min": [
        -0.26147937774658203,
        0.54641079902648926,
        -0.26147943735122681
      ],
      "type": "VEC3"
    },
    {
      "bufferView": 2,
      "byteOffset": 12708,
      "componentType": 5126,
      "count": 63,
      "max": [
        0.99986898899078369,
        0.016189659014344215,
        0.99986904859542847
      ],
      "min": [
        -0.99986904859542847,
        -1,
        -0.99986904859542847
      ],
      "type": "VEC3"
    },
    {
      "bufferView": 3,
      "byteOffset": 7968,
      "componentType": 5126,
      "count": 63,
      "max": [
        0.89094191789627075,
        0.99986904859542847,
        0.056012686342000961,
        1
      ],
      "min": [
        -0.016164291650056839,
        -1.6014138282116619e-07,
        -0.45412164926528931,
        1
      ],
      "type": "VEC4"
    },
    {
      "bufferView": 1,
      "byteOffset": 3984,
      "componentType": 5126,
      "count": 63,
      "max": [
        0.99641042947769165,
        0.99598294496536255
      ],
      "min": [
        0.16610097885131836,
        0.28363403677940369
      ],
      "type": "VEC2"
    },
    {
      "bufferView": 0,
      "byteOffset": 9828,
      "componentType": 5125,
      "count": 180,
      "max": [
        62
      ],
      "min": [
        0
      ],
      "type": "SCALAR"
    },
    {
      "bufferView": 2,
      "byteOffset": 13464,
      "componentType": 5126,
      "count": 587,
      "max": [
        0.16497576236724854,
        2.92702317237854,
        2.4757266044616699
      ],
      "min": [
        -0.16497582197189331,
        -1.4408071041107178,
        -2.4755823612213135
      ],
      "type": "VEC3"
    },
    {
      "bufferView": 2,
      "byteOffset": 20508,
      "componentType": 5126,
      "count": 587,
      "max": [
        1,
        1,
        1
      ],
      "min": [
        -1,
        -0.97476714849472046,
        -1
      ],
      "type": "VEC3"
    },
    {
      "bufferView": 3,
      "byteOffset": 8976,
      "componentType": 5126,
      "count": 587,
      "max": [
        0.99900698661804199,
        0.95014053583145142,
        0.999176025390625,
        1
      ],
      "min": [
        -0.99998599290847778,
        -0.88386541604995728,
        -0.99988818168640137,
        -1
      ],
      "type": "VEC4"
    },
    {
      "bufferView": 1,
      "byteOffset": 4488,
      "componentType": 5126,
      "count": 587,
      "max": [
        0.70896041393280029,
        0.9993060827255249
      ],
      "min": [
        0.0053902864456176758,
        -0.0006939321756362915
      ],
      "type": "VEC2"
    },
    {
      "bufferView": 0,
      "byteOffset": 10548,
      "componentType": 5125,
      "count": 2640,
      "max": [
        586
      ],
      "min": [
        0
      ],
      "type": "SCALAR"
    },
    {
      "bufferView": 2,
      "byteOffset": 27552,
      "componentType": 5126,
      "count": 41,
      "max": [
        1,
        1,
        0.86602544784545898
      ],
      "min": [
        -1,
        -0.86602538824081421,
        -0.86602550745010376
      ],
      "type": "VEC3"
    },
    {
      "bufferView": 2,
      "byteOffset": 28044,
      "componentType": 5126,
      "count": 41,
      "max": [
        1,
        1,
        0.86602538824081421
      ],
      "min": [
        -1,
        -0.7071068286895752,
        -0.86602556705474854
      ],
      "type": "VEC3"
    },
    {
      "bufferView": 3,
      "byteOffset": 18368,
      "componentType": 5126,
      "count": 41,
      "max": [
        0.91831034421920776,
        1,
        0.95917946100234985,
        1
      ],
      "min": [
        -0.98777616024017334,
        -2.6742625891529315e-08,
        -0.99954450130462646,
        1
      ],
      "type": "VEC4"
    },
    {
      "bufferView": 1,
      "byteOffset": 9184,
      "componentType": 5126,
      "count": 41,
      "max": [
        0.38935869932174683,
        0.2474016547203064
      ],
      "min": [
        0.27374118566513062,
        0.032220244407653809
      ],
      "type": "VEC2"
    },
    {
      "bufferView": 0,
      "byteOffset": 21108,
      "componentType": 5125,
      "count": 162,
      "max": [
        40
      ],
      "min": [
        0
      ],
      "type": "SCALAR"
    },
    {
      "bufferView": 4,
      "componentType": 5126,
      "count": 90,
      "max": [
        3
      ],
      "min": [
        0.041666667908430099
      ],
      "type": "SCALAR"
    },
    {
      "bufferView": 5,
      "componentType": 5126,
      "count": 90,
      "max": [
        0.99991190433502197,
        0,
        0,
        1
      ],
      "min": [
        -0.85551702976226807,
        0,
        0,
        -0.48717284202575684
      ],
      "type": "VEC4"
    }
  ],
  "animations": [
    {
      "channels": [
        {
          "sampler": 0,
          "target": {
            "node": 41,
            "path": "rotation"
          }
        }
      ],
      "name": "Take 001",
      "samplers": [
        {
          "input": 30,
          "interpolation": "LINEAR",
          "output": 31
        }
      ]
    }
  ],
  "asset": {
    "extras": {
      "author": "Peter Primini (https://sketchfab.com/Planetrix23)",
      "license": "CC-BY-4.0 (http://creativecommons.org/licenses/by/4.0/)",
      "source": "https://sketchfab.com/models/76a5c63001e14041be291a5b1a3d924b",
      "title": "Turbine"
    },
    "generator": "Sketchfab-3.43.5",
    "version": "2.0"
  },
  "bufferViews": [
    {
      "buffer": 0,
      "byteLength": 21756,
      "byteOffset": 0,
      "name": "floatBufferViews",
      "target": 34963
    },
    {
      "buffer": 0,
      "byteLength": 9512,
      "byteOffset": 21756,
      "byteStride": 8,
      "name": "floatBufferViews",
      "target": 34962
    },
    {
      "buffer": 0,
      "byteLength": 28536,
      "byteOffset": 31268,
      "byteStride": 12,
      "name": "floatBufferViews",
      "target": 34962
    },
    {
      "buffer": 0,
      "byteLength": 19024,
      "byteOffset": 59804,
      "byteStride": 16,
      "name": "floatBufferViews",
      "target": 34962
    },
    {
      "buffer": 0,
      "byteLength": 360,
      "byteOffset": 78828,
      "name": "floatBufferViews"
    },
    {
      "buffer": 0,
      "byteLength": 1440,
      "byteOffset": 79188,
      "byteStride": 16,
      "name": "floatBufferViews"
    }
  ],
  "buffers": [
    {
      "byteLength": 80628,
      "uri": "scene.bin"
    }
  ],
  "images": [
    {
      "uri": "textures/lambert1_baseColor.png"
    },
    {
      "uri": "textures/lambert1_metallicRoughness.png"
    },
    {
      "uri": "textures/lambert1_normal.png"
    },
    {
      "uri": "textures/lambert1_emissive.png"
    }
  ],
  "materials": [
    {
      "doubleSided": true,
      "emissiveFactor": [
        1,
        1,
        1
      ],
      "emissiveTexture": {
        "index": 3,
        "texCoord": 0
      },
      "name": "lambert1",
      "normalTexture": {
        "index": 2,
        "scale": 1,
        "texCoord": 0
      },
      "pbrMetallicRoughness": {
        "baseColorFactor": [
          1,
          1,
          1,
          1
        ],
        "baseColorTexture": {
          "index": 0,
          "texCoord": 0
        },
        "metallicFactor": 1,
        "metallicRoughnessTexture": {
          "index": 1,
          "texCoord": 0
        },
        "roughnessFactor": 0.59999999999999998
      }
    }
  ],
  "meshes": [
    {
      "name": "polySurface8_lambert1_0",
      "primitives": [
        {
          "attributes": {
            "NORMAL": 1,
            "POSITION": 0,
            "TANGENT": 2,
            "TEXCOORD_0": 3
          },
          "indices": 4,
          "material": 0,
          "mode": 4
        }
      ]
    },
    {
      "name": "polySurface9_lambert1_0",
      "primitives": [
        {
          "attributes": {
            "NORMAL": 6,
            "POSITION": 5,
            "TANGENT": 7,
            "TEXCOORD_0": 8
          },
          "indices": 9,
          "material": 0,
          "mode": 4
        }
      ]
    },
    {
      "name": "polySurface11_lambert1_0",
      "primitives": [
        {
          "attributes": {
            "NORMAL": 11,
            "POSITION": 10,
            "TANGENT": 12,
            "TEXCOORD_0": 13
          },
          "indices": 14,
          "material": 0,
          "mode": 4
        }
      ]
    },
    {
      "name": "polySurface12_lambert1_0",
      "primitives": [
        {
          "attributes": {
            "NORMAL": 16,
            "POSITION": 15,
            "TANGENT": 17,
            "TEXCOORD_0": 18
          },
          "indices": 19,
          "material": 0,
          "mode": 4
        }
      ]
    },
    {
      "name": "polySurface10_lambert1_0",
      "primitives": [
        {
          "attributes": {
            "NORMAL": 21,
            "POSITION": 20,
            "TANGENT": 22,
            "TEXCOORD_0": 23
          },
          "indices": 24,
          "material": 0,
          "mode": 4
        }
      ]
    },
    {
      "name": "pSphere1_lambert1_0",
      "primitives": [
        {
          "attributes": {
            "NORMAL": 26,
            "POSITION": 25,
            "TANGENT": 27,
            "TEXCOORD_0": 28
          },
          "indices": 29,
          "material": 0,
          "mode": 4
        }
      ]
    }
  ],
  "nodes": [
    {
      "children": [
        1
      ],
      "name": "RootNode (gltf orientation matrix)",
      "rotation": [
        -0.70710678118654746,
        -0,
        -0,
        0.70710678118654757
      ]
    },
    {
      "children": [
        2
      ],
      "matrix": [
        0,
        -1,
        0,
        0,
        1,
        0,
        0,
        0,
        0,
        0,
        1,
        0,
        -0.57462745904922485,
        0.062514036893844604,
        -0.35146868228912354,
        1
      ],
      "name": "RootNode (model correction matrix)"
    },
    {
      "children": [
        3
      ],
      "matrix": [
        1,
        0,
        0,
        0,
        0,
        0,
        1,
        0,
        0,
        -1,
        0,
        0,
        0,
        0,
        0,
        1
      ],
      "name": "dd15c18350c04dbb9affa22bb8805cbf.fbx"
    },
    {
      "children": [
        4
      ],
      "name": ""
    },
    {
      "children": [
        5,
        7,
        9,
        11,
        13,
        15,
        21,
        23,
        25,
        41,
        43
      ],
      "name": "RootNode"
    },
    {
      "children": [
        6
      ],
      "name": "pCylinder1",
      "scale": [
        0.26147931814193726,
        3.18935227394104,
        0.26147931814193726
      ],
      "translation": [
        0,
        3.7357630729675293,
        0
      ]
    },
    {
      "name": "transform4"
    },
    {
      "children": [
        8
      ],
      "name": "pCube1",
      "scale": [
        1.1391738653182983,
        0.53470301628112793,
        0.51937419176101685
      ],
      "translation": [
        -0.075557202100753784,
        7.0764522552490234,
        0
      ]
    },
    {
      "name": "transform5"
    },
    {
      "children": [
        10
      ],
      "name": "pCylinder2",
      "rotation": [
        0,
        0,
        -0.7071068286895752,
        0.7071068286895752
      ],
      "scale": [
        0.25263240933418274,
        0.1649758368730545,
        0.25263240933418274
      ],
      "translation": [
        0.60289078950881958,
        7.0775437355041504,
        0
      ]
    },
    {
      "name": "transform6"
    },
    {
      "children": [
        12
      ],
      "name": "pCylinder3",
      "scale": [
        0.067166335880756378,
        0.067166335880756378,
        0.067166335880756378
      ],
      "translation": [
        0.60917836427688599,
        7.273167610168457,
        0
      ]
    },
    {
      "name": "transform1"
    },
    {
      "children": [
        14
      ],
      "name": "pCylinder4",
      "rotation": [
        0.86602538824081421,
        0,
        0,
        -0.5
      ],
      "scale": [
        0.067166335880756378,
        0.067166335880756378,
        0.067166335880756378
      ],
      "translation": [
        0.60917836427688599,
        6.9783535003662109,
        -0.15030966699123383
      ]
    },
    {
      "name": "transform2",
      "rotation": [
        2.7755575615628914e-17,
        0,
        0,
        1
      ]
    },
    {
      "children": [
        16,
        18,
        19
      ],
      "name": "pCylinder5",
      "scale": [
        1.3246729373931885,
        1.3246729373931885,
        1.3246729373931885
      ],
      "translation": [
        -0.1977836936712265,
        -2.3192875385284424,
        1.935201154878996e-08
      ]
    },
    {
      "children": [
        17
      ],
      "name": "polySurface3"
    },
    {
      "name": "transform10"
    },
    {
      "name": "transform3"
    },
    {
      "children": [
        20
      ],
      "name": "polySurface4",
      "rotation": [
        0.86602538824081421,
        0,
        0,
        -0.5
      ],
      "translation": [
        0,
        10.719670295715332,
        6.2535557746887207
      ]
    },
    {
      "name": "transform9",
      "rotation": [
        -5.5511151231257827e-17,
        -0,
        0,
        1
      ]
    },
    {
      "children": [
        22
      ],
      "name": "pCylinder6",
      "scale": [
        0.0063824495300650597,
        0.1560174971818924,
        0.0063824495300650597
      ],
      "translation": [
        -0.40093597769737244,
        7.4523682594299316,
        0
      ]
    },
    {
      "name": "transform8"
    },
    {
      "children": [
        24
      ],
      "name": "pCylinder7",
      "scale": [
        0.20656360685825348,
        0.11446534842252731,
        0.20656360685825348
      ],
      "translation": [
        0,
        6.7424612045288086,
        0
      ]
    },
    {
      "name": "transform7"
    },
    {
      "children": [
        26,
        28,
        30,
        32,
        34,
        36,
        38,
        39
      ],
      "name": "polySurface3"
    },
    {
      "children": [
        27
      ],
      "name": "polySurface5",
      "rotation": [
        0.86602538824081421,
        0,
        0,
        -0.5
      ],
      "translation": [
        0,
        10.642935752868652,
        6.1908149719238281
      ]
    },
    {
      "name": "transform12",
      "rotation": [
        -2.7755575615628914e-17,
        -0,
        0,
        1
      ]
    },
    {
      "children": [
        29
      ],
      "name": "polySurface8"
    },
    {
      "mesh": 0,
      "name": "polySurface8_lambert1_0"
    },
    {
      "children": [
        31
      ],
      "name": "polySurface9"
    },
    {
      "mesh": 1,
      "name": "polySurface9_lambert1_0"
    },
    {
      "children": [
        33
      ],
      "name": "polySurface10"
    },
    {
      "name": "transform14"
    },
    {
      "children": [
        35
      ],
      "name": "polySurface11"
    },
    {
      "mesh": 2,
      "name": "polySurface11_lambert1_0"
    },
    {
      "children": [
        37
      ],
      "name": "polySurface12"
    },
    {
      "mesh": 3,
      "name": "polySurface12_lambert1_0"
    },
    {
      "name": "transform11"
    },
    {
      "children": [
        40
      ],
      "name": "polySurface13"
    },
    {
      "name": "transform13"
    },
    {
      "children": [
        42
      ],
      "name": "polySurface10",
      "rotation": [
        0.176068514585495,
        0,
        0,
        0.98437792062759399
      ],
      "translation": [
        0.60289084911346436,
        7.077639102935791,
        -7.2389651904813945e-05
      ]
    },
    {
      "mesh": 4,
      "name": "polySurface10_lambert1_0"
    },
    {
      "children": [
        44
      ],
      "name": "pSphere1",
      "scale": [
        0.009866311214864254,
        0.012918435037136078,
        0.009866311214864254
      ],
      "translation": [
        -0.40064242482185364,
        7.6186985969543457,
        0
      ]
    },
    {
      "mesh": 5,
      "name": "pSphere1_lambert1_0"
    }
  ],
  "samplers": [
    {
      "magFilter": 9729,
      "minFilter": 9987,
      "wrapS": 10497,
      "wrapT": 10497
    }
  ],
  "scene": 0,
  "scenes": [
    {
      "name": "OSG_Scene",
      "nodes": [
        0
      ]
    }
  ],
  "textures": [
    {
      "sampler": 0,
      "source": 0
    },
    {
      "sampler": 0,
      "source": 1
    },
    {
      "sampler": 0,
      "source": 2
    },
    {
      "sampler": 0,
      "source": 3
    }
  ]
}

